<?xml version="1.0" encoding="utf-8"?><svg xmlns="http://www.w3.org/2000/svg" xmlns:xlink="http://www.w3.org/1999/xlink"><symbol viewBox="0 0 19 15" id="arrow" xmlns="http://www.w3.org/2000/svg"><path fill-rule="evenodd" d="M19 7.299v.402l.015.014L19 7.73V8h-.27l-7.015 7.015-.73-.73L17.27 8H0V7h17.27L10.985.715l.73-.73L18.73 7H19v.27l.015.015-.015.014z"/></symbol><symbol viewBox="0 0 19 15" id="arrow-left" xmlns="http://www.w3.org/2000/svg"><path fill-rule="evenodd" d="M19 8H1.73l6.285 6.285-.73.73L.27 8H0v-.27l-.015-.015L0 7.701v-.402l-.015-.014L0 7.27V7h.27L7.285-.015l.73.73L1.73 7H19v1z"/></symbol><symbol viewBox="0 0 19 15" id="arrow-view" xmlns="http://www.w3.org/2000/svg"><path fill-rule="evenodd" d="M19 7.299v.402l.015.014L19 7.73V8h-.27l-7.015 7.015-.73-.73L17.27 8H0V7h17.27L10.985.715l.73-.73L18.73 7H19v.27l.015.015-.015.014z"/></symbol><symbol viewBox="0 0 10 21.5" id="fb" xmlns="http://www.w3.org/2000/svg"><path d="M10 7l-.4 3.7h-3v10.7H2.2V10.7H0V7h2.2V4.8C2.2 1.8 3.5 0 7 0h3v3.7H8.1c-1.4 0-1.5.5-1.5 1.5V7H10z"/></symbol><symbol viewBox="0 0 37.7 37.7" id="google" xmlns="http://www.w3.org/2000/svg"><path d="M24.1 0L21 1.8h-3.1c2.2 1.4 3.4 4.1 3.4 6.7 0 6-5.1 6.5-5.1 9.5 0 2.9 6.8 4.1 6.8 10.4 0 2.6-1.2 4.7-3.2 6.4-2.6 2.2-6.2 3-9.5 3C6.1 37.7 0 35.9 0 30.6c0-1.1.4-2.1.8-3.1 2-4.1 8.3-5.1 12.4-5.2-.7-1-1.5-2.1-1.5-3.4 0-.7.3-1.2.5-1.9-.5.1-1.1.1-1.6.1-4.4 0-8.2-3.2-8.2-7.8 0-4.3 3.3-8 7.5-8.9 1.4-.2 2.8-.4 4.3-.4h9.9zm-9.5 23.8h-1.1c-3.7 0-9.2 1.2-9.2 5.9 0 4.4 4.9 6 8.5 6 3.4 0 7.1-1.4 7.1-5.3 0-3.3-3-5-5.3-6.6zM11.1 1.6c-3 0-4.4 2.6-4.4 5.3 0 3.4 2.3 8.8 6.3 8.8 3.1 0 4.2-2.2 4.2-5-.1-3.4-1.9-9.1-6.1-9.1zm26.6 7.1h-5.8v5.8H29V8.7h-5.8V5.8H29V0h2.9v5.8h5.8v2.9z"/></symbol><symbol viewBox="0 0 24 24" id="heart" xmlns="http://www.w3.org/2000/svg"><path d="M20.5 4.609A5.811 5.811 0 0016 2.5a5.75 5.75 0 00-4 1.455A5.75 5.75 0 008 2.5a5.811 5.811 0 00-4.5 2.109c-.953 1.156-1.95 3.249-1.289 6.66 1.055 5.447 8.966 9.917 9.3 10.1a1 1 0 00.974 0c.336-.187 8.247-4.657 9.3-10.1.665-3.411-.332-5.504-1.285-6.66zm-.674 6.28C19.08 14.74 13.658 18.322 12 19.34c-2.336-1.41-7.142-4.95-7.821-8.451-.513-2.646.189-4.183.869-5.007A3.819 3.819 0 018 4.5a3.493 3.493 0 013.115 1.469 1.005 1.005 0 001.76.011A3.489 3.489 0 0116 4.5a3.819 3.819 0 012.959 1.382c.678.824 1.38 2.361.867 5.007z"/></symbol><symbol viewBox="0 0 38.6 36.9" id="linked" xmlns="http://www.w3.org/2000/svg"><path d="M4.6 8.6C1.8 8.6 0 6.7 0 4.3S1.9 0 4.7 0c2.8 0 4.6 1.9 4.6 4.3S7.5 8.6 4.6 8.6zm4.2 28.3H.5V12h8.3v24.9zm29.8 0h-8.3V23.6c0-3.3-1.2-5.6-4.2-5.6-2.3 0-3.6 1.5-4.2 3-.2.6-.3 1.3-.3 2v13.9h-8.3c.1-22.5 0-24.9 0-24.9h8.3v3.6h-.1c1.1-1.7 3-4.2 7.5-4.2 5.4 0 9.5 3.6 9.5 11.2v14.3z"/></symbol><symbol viewBox="0 0 45 60" id="marker" xmlns="http://www.w3.org/2000/svg"><path fill-rule="evenodd" d="M22.5 60S0 34.925 0 22.5 10.075 0 22.5 0C34.926 0 45 10.075 45 22.5S22.5 60 22.5 60zm0-52.5c-8.284 0-15 6.716-15 15 0 8.283 6.716 15 15 15 8.284 0 15-6.717 15-15 0-8.284-6.716-15-15-15z"/></symbol><symbol viewBox="0 0 39.6 32.1" id="twitter" xmlns="http://www.w3.org/2000/svg"><path d="M35.5 8v1.1c0 10.7-8.2 23.1-23.1 23.1-4.6 0-8.9-1.3-12.5-3.6.7.1 1.3.1 2 .1 3.8 0 7.3-1.3 10.1-3.5-3.6-.1-6.6-2.4-7.6-5.6.5.1 1 .1 1.5.1.7 0 1.5-.1 2.1-.3-3.7-.8-6.5-4-6.5-8v-.1c1.1.6 2.3 1 3.7 1C3 10.8 1.6 8.4 1.6 5.5c0-1.5.4-2.9 1.1-4.1 4 4.9 10 8.1 16.7 8.5-.1-.6-.2-1.2-.2-1.9 0-4.5 3.6-8.1 8.1-8.1 2.3 0 4.4 1 5.9 2.6 1.8-.4 3.6-1 5.1-2-.6 1.9-1.9 3.5-3.6 4.5 1.6-.2 3.2-.6 4.7-1.3-.9 1.7-2.3 3.2-3.9 4.3z"/></symbol></svg>